<svg width="206" height="72" viewBox="0 0 206 72" fill="none" xmlns="http://www.w3.org/2000/svg">
<path d="M118.26 0.358516C117.235 1.18854 115.77 2.81603 115.363 3.5484L114.973 4.28077L116.633 5.94081C117.544 6.86848 118.293 7.6985 118.293 7.81242C118.293 7.91007 118.39 8.08909 118.504 8.18674C118.683 8.31694 119.172 7.92634 120.799 6.3314L122.866 4.29704L122.54 3.87389C122.345 3.62977 122.199 3.32055 122.199 3.17407C122.199 2.88113 119.513 0.163218 119.074 0.0167436C118.895 -0.048356 118.586 0.0818432 118.26 0.358516Z" fill="#393F2E"/>
<path d="M11.5785 4.08489C11.4157 4.14999 11.3669 5.84257 11.3669 11.7504C11.3669 15.933 11.3018 19.4484 11.2367 19.546C11.1391 19.6925 9.72314 19.7739 5.68696 19.8064C2.59473 19.8553 0.218598 19.9366 0.120949 20.0343C0.0395743 20.1157 -0.00925035 21.6618 0.00702455 23.7612L0.0558492 27.3254L5.49166 27.3743C8.95822 27.3905 11.0089 27.4719 11.1391 27.5858C11.3018 27.716 11.3506 29.7504 11.3995 36.5696C11.4646 45.0814 11.4808 45.4231 11.8063 46.3671C12.0016 46.9041 12.1969 47.5714 12.262 47.8644C12.3108 48.141 12.4736 48.4665 12.6038 48.5805C12.734 48.6781 12.8316 48.8897 12.8316 49.0524C12.8316 49.1989 12.9618 49.5081 13.1246 49.7197C13.4826 50.2079 13.7268 50.6311 14.0685 51.2495C14.4429 51.9494 16.4284 53.8372 17.3398 54.358C17.7792 54.6022 18.2349 54.8951 18.3651 55.009C18.4953 55.1067 18.7883 55.2532 19.0161 55.3183C19.244 55.3834 19.5369 55.5298 19.6671 55.6438C19.7973 55.7577 20.2042 55.9042 20.5459 55.953C20.8877 56.0181 21.3271 56.1808 21.5224 56.2948C21.7177 56.425 22.6291 56.5877 23.5731 56.6854C24.517 56.783 25.6563 56.9295 26.112 57.0109C26.6002 57.0922 27.3651 57.1085 27.9836 57.0109C28.5532 56.9458 29.7575 56.7993 30.6527 56.6854C31.5478 56.5877 32.5894 56.3761 32.9637 56.1971C33.338 56.0344 33.7286 55.8879 33.81 55.8879C33.9727 55.8879 35.1608 55.3508 35.6165 55.0579C35.7467 54.9765 36.1047 54.7975 36.414 54.651C37.1301 54.3255 40.0921 51.3635 40.4339 50.6474C40.5641 50.3544 40.9221 49.6709 41.2313 49.1338C41.5243 48.5967 41.7847 47.9946 41.7847 47.783C41.801 47.5877 41.9474 47.132 42.1265 46.7739C42.3218 46.3996 42.452 45.8137 42.452 45.3418C42.452 44.9023 42.5659 44.1862 42.6961 43.7468C42.8588 43.2097 42.9402 42.2332 42.9402 40.7848V38.6365H37.0975H31.2711L31.1897 41.1266C31.0921 44.1374 30.8642 44.6908 29.4809 45.472C28.6834 45.9276 28.5044 45.9602 26.9745 45.9602C25.4447 45.9602 25.2982 45.9276 24.7449 45.5045C23.8823 44.8698 23.687 44.6582 23.2313 43.9258L22.8407 43.2748L22.7919 35.886C22.7593 31.8173 22.7756 28.2531 22.8407 27.9439L22.9384 27.4068L32.0035 27.3743L41.0686 27.3254V23.5822V19.839L32.036 19.7902C27.0722 19.7576 22.9709 19.7088 22.9221 19.66C22.8733 19.6111 22.8082 16.0795 22.7593 11.8155L22.678 4.05234L17.2259 4.01979C14.2313 4.00351 11.6761 4.03606 11.5785 4.08489ZM18.1047 9.04873C18.2349 9.53698 18.2349 19.0741 18.1047 19.5623C18.0071 19.9041 17.9257 19.9366 17.0794 19.8878L16.168 19.839L16.1192 14.4683C16.1029 11.5225 16.1192 8.9999 16.168 8.90226C16.2168 8.77206 16.5586 8.69068 17.1282 8.69068C17.8931 8.69068 18.0071 8.73951 18.1047 9.04873ZM18.121 27.7649C18.1698 27.9764 18.2186 31.7685 18.2349 36.1953C18.2837 43.226 18.3163 44.3164 18.5441 44.7396C18.6906 45 18.8534 45.4557 18.9022 45.7323C18.9998 46.2369 19.4718 47.0506 20.2042 47.962C20.6273 48.4991 22.5966 49.8662 22.9384 49.8662C23.0686 49.8662 23.3452 49.9964 23.5731 50.1428C23.8009 50.3056 24.5658 50.4846 25.5912 50.5823C29.0414 50.9729 31.7105 50.1917 33.5333 48.2712C34.4447 47.311 35.4537 45.4557 35.7141 44.2513C35.8443 43.6654 35.9257 43.5841 36.5767 43.3725C37.5695 43.0633 37.8136 43.2423 37.8136 44.2839C37.7973 45.6835 36.7557 47.8318 35.3398 49.3454C33.2566 51.6239 29.7575 52.6004 25.3308 52.1609C23.7033 51.9982 21.8642 51.5588 21.1318 51.1519C21.0016 51.0705 20.6273 50.8752 20.3018 50.6962C19.1138 50.0452 18.1373 48.9711 17.4374 47.5714C15.989 44.6094 16.0866 45.4719 16.0866 36.0162C16.0866 31.3942 16.1354 27.5696 16.2005 27.5207C16.2494 27.4556 16.6888 27.4068 17.1608 27.4068C17.9257 27.4068 18.0396 27.4556 18.121 27.7649Z" fill="#393F2E"/>
<path d="M107.634 4.32932C107.602 4.44324 107.537 5.19189 107.488 6.00563C107.374 7.94234 107.586 10.2371 107.944 10.6114C108.09 10.7742 108.204 11.0671 108.204 11.2461C108.204 11.4252 108.334 11.7181 108.497 11.8971C108.92 12.4179 109.897 13.5735 109.994 13.7037C110.255 14.078 111.947 15.3637 112.143 15.3637C112.289 15.3637 112.566 15.4939 112.777 15.6729C112.989 15.8357 113.445 16.0147 113.77 16.0798C114.096 16.1449 114.568 16.2914 114.812 16.4216C115.153 16.6006 116.097 16.6494 118.913 16.6494C122.135 16.6494 122.656 16.6169 123.372 16.3239C123.812 16.1612 124.284 16.0147 124.414 16.0147C124.56 16.0147 124.853 15.8682 125.081 15.6892C125.309 15.5102 125.634 15.3637 125.797 15.3637C126.237 15.3637 129.036 12.4993 129.036 12.0436C129.036 11.8483 129.182 11.5391 129.361 11.3763C129.54 11.2136 129.687 10.9369 129.687 10.7742C129.687 10.5952 129.833 10.2697 130.012 10.0418C130.305 9.66748 130.338 9.37454 130.338 7.1937C130.338 5.82661 130.257 4.62227 130.175 4.44324C130.012 4.16657 129.817 4.13402 128.011 4.13402C126.595 4.13402 125.927 4.19912 125.7 4.36187C125.521 4.47579 125.097 4.62227 124.739 4.68737C124.121 4.80129 123.21 5.32209 122.965 5.71268C122.9 5.82661 122.721 5.92426 122.591 5.92426C122.135 5.92426 119.759 8.46314 119.759 8.95139C119.759 9.00021 119.564 9.37454 119.336 9.76513C118.929 10.4487 118.88 10.4812 118.62 10.2371C118.457 10.0906 118.295 9.76513 118.229 9.50473C118.099 8.80491 116.651 7.04723 115.479 6.13583C114.03 4.99659 113.672 4.80129 112.94 4.68737C112.582 4.62227 112.191 4.47579 112.094 4.36187C111.833 4.05264 107.732 4.03637 107.634 4.32932Z" fill="#393F2E"/>
<path d="M48.1152 8.70759C47.9199 8.83779 47.9199 56.865 48.1152 57.0603C48.1966 57.1417 50.117 57.1742 52.3955 57.158L56.5293 57.1091L56.6107 46.7746C56.6921 37.3351 56.7246 36.3912 56.985 35.9192C57.1315 35.6263 57.2617 35.2519 57.2617 35.0566C57.2617 34.4382 58.401 32.3225 59.231 31.4111C60.0773 30.4671 61.3793 29.5232 61.8024 29.5232C61.9489 29.5069 62.3558 29.3767 62.7138 29.1977C63.6415 28.742 66.5384 28.742 67.3522 29.1814C67.6614 29.3442 68.1008 29.5395 68.3124 29.6046C68.9308 29.7999 70.1026 31.1344 70.2979 31.8668C70.3956 32.2411 70.5746 32.7456 70.7048 33.0223C70.8838 33.4292 70.9326 35.5774 70.9652 45.3098L71.014 57.1091L75.2455 57.158C77.5728 57.1742 79.6397 57.158 79.8513 57.1091L80.2093 57.0278L80.193 45.3424C80.193 38.2954 80.1279 33.3478 80.0303 32.8595C79.9326 32.4038 79.7862 31.4273 79.7048 30.6624C79.6072 29.8975 79.4281 29.1326 79.3142 28.9373C79.2003 28.742 79.0375 28.3188 78.9887 27.9933C78.9236 27.6678 78.7446 27.2447 78.5818 27.0331C78.4354 26.8378 78.2563 26.4798 78.1912 26.2357C78.0773 25.7474 75.4408 23.0132 75.099 23.0132C74.9851 23.0132 74.7084 22.8668 74.4806 22.704C74.269 22.525 73.8621 22.3297 73.6017 22.2646C73.3413 22.1995 72.9833 22.053 72.8042 21.9391C72.5276 21.7601 69.3377 21.3532 68.2473 21.3532C67.0592 21.3532 63.8856 21.7438 63.495 21.9391C63.2509 22.053 62.5999 22.3622 62.0628 22.6226C61.5257 22.8668 60.6469 23.4038 60.1098 23.7944C59.1822 24.4617 58.8892 24.7872 57.6035 26.5123C57.099 27.1959 57.0176 27.2447 56.8711 26.968C56.7572 26.7727 56.6595 23.6805 56.6107 17.6751L56.5293 8.67504L52.4118 8.64249C50.1333 8.62622 48.2129 8.65877 48.1152 8.70759Z" fill="#393F2E"/>
<path d="M106.087 9.89458C105.029 10.4316 104.736 10.6107 103.89 11.1803C102.946 11.8313 102.734 12.3358 103.239 12.759C103.369 12.8729 103.483 13.1333 103.483 13.3449C103.483 13.5402 103.58 13.8168 103.711 13.947C103.841 14.0772 104.052 14.419 104.182 14.7282C104.638 15.7861 107.372 18.1297 108.154 18.1297C108.3 18.1297 108.544 18.2436 108.707 18.3901C108.87 18.5365 109.309 18.683 109.7 18.7318C110.09 18.7644 110.676 18.9109 111.018 19.0411C111.815 19.334 112.776 19.334 113.524 19.0248C113.833 18.8946 114.273 18.7807 114.501 18.7807C114.712 18.7807 115.38 18.5528 115.966 18.2762C117.235 17.674 117.137 17.4787 115.51 17.4787C114.761 17.4787 114.371 17.3973 114.224 17.2346C114.126 17.1206 113.703 16.9579 113.313 16.8928C112.922 16.844 112.418 16.6487 112.206 16.4859C111.994 16.3069 111.75 16.1767 111.685 16.1767C111.392 16.1767 110.172 15.2165 109.211 14.2237C108.088 13.0682 107.486 12.1568 107.324 11.343C107.258 11.0664 107.096 10.7409 106.965 10.6269C106.835 10.5293 106.738 10.3015 106.738 10.1387C106.738 9.73183 106.542 9.66673 106.087 9.89458Z" fill="#393F2E"/>
<path d="M130.821 10.5131C130.642 10.8061 130.495 11.213 130.495 11.392C130.495 11.5873 130.381 11.8314 130.235 11.9453C130.104 12.0755 129.893 12.401 129.763 12.694C129.486 13.3613 127.81 15.1189 126.98 15.6235C125.759 16.3396 124.831 16.7953 124.343 16.9092C124.066 16.958 123.757 17.1208 123.643 17.251C123.513 17.3974 123.123 17.4788 122.439 17.4788C121.17 17.4788 120.811 17.5927 121.072 17.902C121.17 18.0322 121.381 18.1298 121.528 18.1298C121.674 18.1298 122.016 18.2763 122.276 18.4553C122.553 18.6343 123.041 18.7808 123.415 18.7808C123.774 18.7808 124.213 18.8947 124.376 19.0249C124.799 19.3341 126.117 19.3341 126.866 19.0249C127.175 18.8947 127.631 18.7808 127.875 18.7808C128.103 18.7808 128.575 18.6343 128.916 18.4553C129.242 18.2763 129.616 18.1298 129.714 18.1298C130.3 18.1135 132.66 16.2256 133.05 15.4607C133.197 15.184 133.555 14.6307 133.864 14.2401C134.32 13.6217 134.401 13.3938 134.401 12.5963C134.401 11.5385 134.092 11.1479 132.708 10.4155C131.634 9.84588 131.211 9.86215 130.821 10.5131Z" fill="#393F2E"/>
<path d="M179.242 20.3439C179.063 20.3927 178.656 20.5229 178.347 20.6531C178.037 20.767 177.386 20.9135 176.898 20.9623C176.41 21.0112 175.905 21.1576 175.759 21.2716C175.612 21.4018 175.222 21.5645 174.864 21.6133C174.522 21.6784 173.904 21.9714 173.48 22.2643C173.057 22.5736 172.569 22.8502 172.39 22.9153C171.69 23.1432 168.419 26.626 168.419 27.1468C168.419 27.2607 168.338 27.4235 168.24 27.5211C167.996 27.7652 167.296 29.4578 167.101 30.2553C167.019 30.6134 166.84 31.1992 166.694 31.541C166.564 31.8828 166.417 32.9081 166.368 33.8195C166.319 34.7309 166.157 36.1143 166.026 36.9117C165.799 38.1486 165.782 38.5881 165.961 39.9226C166.059 40.7852 166.222 42.3476 166.303 43.4217C166.401 44.4796 166.58 45.57 166.71 45.8304C166.84 46.1071 166.987 46.579 167.052 46.9208C167.117 47.2463 167.296 47.7671 167.459 48.0763C167.638 48.3855 167.768 48.7599 167.768 48.9063C167.768 49.0528 167.882 49.2644 168.012 49.3783C168.142 49.4922 168.256 49.6713 168.256 49.7852C168.256 49.9154 168.435 50.2083 168.647 50.4687C168.858 50.7128 169.07 51.0872 169.135 51.2987C169.412 52.1776 171.983 54.3422 173.627 55.0745C173.855 55.1884 174.327 55.4 174.685 55.579C175.043 55.7418 175.466 55.8883 175.629 55.8883C175.791 55.8883 176.231 56.0347 176.621 56.2138C177.077 56.4091 177.989 56.5881 179.258 56.702C180.316 56.7834 181.683 56.9299 182.301 57.0112C182.904 57.0926 183.88 57.0926 184.499 57.0112C185.101 56.9299 186.435 56.7997 187.461 56.6857C188.486 56.5881 189.56 56.4091 189.82 56.2951C190.097 56.1812 190.488 56.0347 190.716 55.9696C191.187 55.8557 192.636 55.2698 192.994 55.0582C193.124 54.9769 193.547 54.7653 193.938 54.5863C194.752 54.212 197.616 51.5103 198.055 50.6803C198.235 50.3711 198.511 49.8828 198.69 49.6224C198.869 49.3458 199.065 49.0203 199.113 48.8901C199.178 48.7599 199.39 48.2553 199.602 47.7671C199.813 47.2951 199.992 46.6116 199.992 46.2698V45.6351L196.949 45.7002C195.256 45.7327 193.368 45.7653 192.734 45.7816L191.578 45.7978L190.553 47.1812C189.983 47.9461 189.479 48.5646 189.414 48.5646C189.365 48.5646 188.893 48.8901 188.388 49.2807C187.672 49.834 187.298 49.9968 186.614 50.0944C186.142 50.1432 185.459 50.306 185.101 50.4362C184.319 50.7128 182.464 50.7454 181.813 50.5013C181.569 50.4036 180.82 50.2246 180.186 50.0944C178.851 49.8503 178.086 49.4109 177.11 48.3855C176.394 47.6369 175.58 46.2373 175.58 45.7816C175.58 45.6351 175.482 45.4235 175.352 45.3259C175.124 45.1306 174.652 41.2897 174.847 41.1107C174.913 41.0456 180.755 40.9642 187.835 40.9154L200.725 40.834L200.806 39.7761C200.969 37.9045 200.708 33.1685 200.415 32.5826C200.269 32.3059 200.106 31.6549 200.057 31.1667C199.992 30.6622 199.813 30.0275 199.65 29.7508C199.471 29.4741 199.341 29.1161 199.341 28.9533C199.341 28.8068 199.195 28.4976 199.016 28.2698C198.837 28.0419 198.69 27.7164 198.69 27.5699C198.69 27.4072 198.576 27.1956 198.43 27.0817C198.3 26.9515 198.072 26.6097 197.942 26.3005C197.681 25.6495 195.11 23.013 194.752 23.013C194.605 23.013 194.312 22.8665 194.068 22.6712C193.466 22.1992 192.213 21.5482 191.904 21.5482C191.757 21.5482 191.513 21.4343 191.35 21.2878C191.204 21.1576 190.65 20.9949 190.13 20.9461C189.593 20.8972 188.99 20.7345 188.763 20.588C188.421 20.3602 187.721 20.3276 183.961 20.2951C181.553 20.2788 179.421 20.3113 179.242 20.3439ZM187.119 27.1468C187.265 27.2933 187.64 27.456 187.933 27.5048C188.86 27.7001 191.367 30.4994 191.367 31.3457C191.367 31.4759 191.497 31.834 191.676 32.1757C192.066 32.9407 192.31 35.2191 191.985 35.2191C190.439 35.268 175.01 35.1866 174.945 35.1378C174.75 35.0238 175.108 32.0618 175.336 31.8014C175.466 31.6712 175.612 31.3294 175.678 31.069C175.824 30.4832 176.231 29.881 177.224 28.8882C178.054 28.0419 178.656 27.5699 178.916 27.5699C178.998 27.5699 179.307 27.4397 179.567 27.2933C180.316 26.8864 181.439 26.7725 184.254 26.8376C186.321 26.8701 186.891 26.9352 187.119 27.1468Z" fill="#393F2E"/>
<path d="M108.512 21.287C108.479 21.3359 107.535 21.4498 106.412 21.5474C105.305 21.6451 104.248 21.8078 104.052 21.938C103.873 22.0519 103.515 22.1984 103.239 22.2635C102.083 22.5402 99.0559 24.7699 98.828 25.5185C98.7629 25.6975 98.5514 26.0718 98.3398 26.316C98.1282 26.5764 97.9492 26.9019 97.9492 27.0321C97.9492 27.2436 97.2494 28.0574 97.0704 28.0574C96.8588 28.0574 96.6472 27.0809 96.7937 26.7228C96.8913 26.4624 96.8913 26.0718 96.7937 25.6813C96.7286 25.3232 96.6472 24.5583 96.6472 23.9561C96.6472 22.2147 97.0053 22.3612 92.5785 22.3612C90.0071 22.3612 88.6562 22.4263 88.5911 22.5402C88.2331 23.1098 88.168 55.8712 88.5098 56.7989L88.6725 57.1895H92.904C95.2313 57.1895 97.1517 57.1732 97.168 57.1406C97.1843 57.1244 97.2494 52.5999 97.2982 47.099C97.3796 37.8061 97.4121 37.0249 97.6888 36.2762C97.998 35.4787 98.7629 33.8513 99.2512 32.9561C99.6255 32.2889 100.732 31.1496 101.286 30.8892C101.546 30.759 101.953 30.5474 102.181 30.4335C103.759 29.5547 104.02 29.5059 106.689 29.4896C108.447 29.4896 109.293 29.4245 109.374 29.3106C109.521 29.0827 109.553 22.4425 109.407 21.7265C109.325 21.3521 109.211 21.2219 108.935 21.2219C108.739 21.2219 108.544 21.2545 108.512 21.287Z" fill="#393F2E"/>
<path d="M114.387 39.7753V57.1895H118.586C122.117 57.1895 122.833 57.1569 123.143 56.9291L123.501 56.6849V39.6939C123.501 23.061 123.501 22.6867 123.191 22.5239C122.996 22.4263 121.238 22.3612 118.634 22.3612H114.387V39.7753Z" fill="#393F2E"/>
<path d="M127.895 22.5565C127.895 22.6867 128.041 23.0447 128.22 23.3865C128.399 23.712 128.546 24.1026 128.546 24.2491C128.546 24.3955 128.692 24.6885 128.871 24.9163C129.05 25.1442 129.197 25.5673 129.197 25.8603C129.197 26.1532 129.343 26.5764 129.522 26.8042C129.701 27.0321 129.848 27.3901 129.848 27.6017C129.848 27.797 129.994 28.1876 130.173 28.4643C130.352 28.7247 130.499 29.1478 130.499 29.3757C130.499 29.6198 130.645 29.9941 130.824 30.222C131.003 30.4498 131.15 30.8078 131.15 31.0194C131.15 31.231 131.296 31.6867 131.475 32.0447C131.654 32.4028 131.801 32.7771 131.801 32.8748C131.801 32.9887 131.98 33.4607 132.207 33.9489C132.435 34.4209 132.614 34.9742 132.614 35.1532C132.614 35.3485 132.728 35.5927 132.858 35.7066C132.972 35.8042 133.135 36.2274 133.2 36.618C133.249 37.0086 133.444 37.5131 133.607 37.7247C133.786 37.9363 133.916 38.278 133.916 38.457C133.916 38.6523 134.063 39.0918 134.242 39.4498C134.421 39.8079 134.567 40.2147 134.567 40.3775C134.567 40.5402 134.714 40.882 134.893 41.1587C135.072 41.4191 135.218 41.7934 135.218 41.9724C135.218 42.1514 135.348 42.5583 135.527 42.8675C135.69 43.1768 135.886 43.6976 135.951 44.0068C136.016 44.316 136.211 44.8368 136.374 45.146C136.553 45.4553 136.683 45.797 136.683 45.911C136.683 46.0249 136.829 46.3992 137.008 46.7247C137.187 47.0665 137.334 47.5059 137.334 47.7175C137.334 47.929 137.48 48.2871 137.659 48.5149C137.838 48.7428 137.985 49.1334 137.985 49.3612C137.985 49.5891 138.131 50.061 138.31 50.4028C138.489 50.7283 138.636 51.1352 138.636 51.3142C138.636 51.477 138.782 51.8025 138.961 52.0303C139.14 52.2582 139.287 52.6162 139.287 52.8278C139.287 53.0394 139.417 53.4625 139.596 53.7717C139.759 54.0809 139.954 54.6017 140.019 54.911C140.084 55.2202 140.247 55.6596 140.361 55.8875C140.491 56.1153 140.654 56.4896 140.752 56.7338L140.914 57.1895H145.862C151.298 57.1895 151.33 57.1895 151.33 56.2292C151.33 55.9688 151.477 55.5782 151.656 55.3504C151.835 55.1225 151.981 54.797 151.981 54.6343C151.981 54.4715 152.128 54.0647 152.307 53.7229C152.486 53.3974 152.632 52.9905 152.632 52.8441C152.632 52.6813 152.828 52.1768 153.039 51.7374C153.267 51.2817 153.446 50.7283 153.446 50.5005C153.446 50.2563 153.56 49.9797 153.69 49.8658C153.82 49.7518 153.967 49.4101 154.032 49.0683C154.097 48.7428 154.276 48.2545 154.439 47.9779C154.618 47.7012 154.748 47.3431 154.748 47.1967C154.748 47.0502 154.895 46.6433 155.074 46.2853C155.253 45.9272 155.399 45.4878 155.399 45.2925C155.399 45.0972 155.513 44.8043 155.659 44.6415C155.806 44.4788 155.985 44.0068 156.066 43.5836C156.148 43.1605 156.327 42.6885 156.457 42.542C156.587 42.3956 156.701 42.1352 156.701 41.9562C156.701 41.7771 156.831 41.3865 157.01 41.0773C157.173 40.7681 157.352 40.2798 157.417 39.9869C157.482 39.7102 157.678 39.2057 157.857 38.8639C158.019 38.5221 158.166 38.0502 158.166 37.8061C158.166 37.5619 158.28 37.2853 158.41 37.1713C158.54 37.0574 158.687 36.7319 158.752 36.4227C158.801 36.1135 158.996 35.5927 159.159 35.2672C159.338 34.9254 159.468 34.5185 159.468 34.3232C159.468 34.1442 159.614 33.7699 159.793 33.5095C159.972 33.2328 160.119 32.8097 160.119 32.5655C160.119 32.3051 160.265 31.9145 160.444 31.6867C160.623 31.4588 160.77 31.1171 160.77 30.9218C160.77 30.7265 160.916 30.2871 161.079 29.9453C161.258 29.6035 161.453 29.099 161.518 28.8223C161.567 28.5294 161.763 28.0248 161.925 27.6993C162.104 27.3576 162.235 26.9507 162.235 26.7879C162.235 26.6089 162.348 26.3811 162.479 26.2672C162.593 26.1695 162.755 25.7301 162.82 25.3232C162.886 24.9001 163.065 24.3793 163.227 24.1677C163.406 23.9561 163.537 23.6306 163.537 23.4353C163.537 23.2563 163.602 22.9796 163.699 22.8494C163.797 22.7029 163.781 22.5728 163.65 22.4914C163.537 22.4263 161.502 22.3612 159.11 22.3612C154.471 22.3612 154.26 22.3937 154.26 23.1912C154.26 23.3702 154.146 23.7771 153.999 24.1189C153.853 24.4444 153.641 25.0791 153.527 25.5348C153.414 25.9742 153.202 26.6415 153.056 26.9995C152.925 27.3576 152.811 27.8784 152.795 28.155C152.795 28.4317 152.681 28.7572 152.551 28.8711C152.437 28.9688 152.274 29.3919 152.209 29.7825C152.16 30.1731 151.965 30.7753 151.802 31.1008C151.623 31.4426 151.493 31.9308 151.493 32.1912C151.493 32.4516 151.379 32.7934 151.249 32.9399C151.103 33.1026 150.924 33.5746 150.858 34.014C150.777 34.4534 150.598 35.023 150.452 35.2997C150.305 35.5601 150.191 35.9507 150.191 36.1623C150.191 36.3576 150.045 36.8133 149.882 37.1388C149.703 37.4806 149.524 38.1153 149.459 38.5547C149.394 39.0104 149.263 39.4498 149.182 39.5475C148.987 39.8079 148.075 42.6397 148.075 42.9977C148.075 43.1605 147.929 43.5674 147.75 43.9254C147.571 44.2835 147.424 44.7066 147.424 44.9019C147.424 45.0809 147.31 45.439 147.164 45.7157C147.018 45.9761 146.839 46.627 146.773 47.1641C146.692 47.6849 146.513 48.2383 146.35 48.4173C146.09 48.7102 146.074 48.7102 145.748 48.2871C145.553 48.0592 145.357 47.4733 145.292 46.9851C145.227 46.4968 145.065 45.9761 144.934 45.8296C144.804 45.6668 144.641 45.146 144.593 44.6578C144.527 44.1695 144.365 43.5999 144.235 43.3883C144.104 43.193 143.925 42.656 143.844 42.184C143.746 41.7283 143.567 41.2238 143.437 41.0773C143.307 40.9308 143.193 40.5565 143.193 40.2473C143.193 39.9381 143.063 39.5149 142.916 39.3033C142.77 39.0755 142.591 38.5384 142.526 38.099C142.444 37.6596 142.282 37.1713 142.168 37.0249C142.037 36.8784 141.891 36.4552 141.842 36.0646C141.793 35.674 141.647 35.2346 141.517 35.0881C141.386 34.9417 141.24 34.4534 141.175 34.014C141.126 33.5746 140.98 33.0863 140.849 32.9561C140.735 32.8097 140.589 32.3702 140.524 31.9634C140.459 31.5565 140.312 31.0682 140.182 30.8729C140.052 30.6776 139.905 30.2057 139.84 29.8151C139.775 29.4245 139.629 29.0013 139.515 28.8711C139.401 28.7409 139.238 28.1713 139.14 27.6017C139.059 27.0483 138.864 26.4299 138.734 26.2346C138.587 26.0393 138.473 25.6975 138.473 25.5022C138.473 25.3069 138.327 24.8187 138.164 24.4444C137.985 24.0538 137.79 23.4516 137.708 23.0935L137.578 22.4426L132.744 22.3937C128.887 22.3612 127.895 22.3937 127.895 22.5565Z" fill="#393F2E"/>
<path d="M0.0389345 65.865C0.00638472 65.9789 -0.00989018 67.3135 0.00638472 68.827L0.0552094 71.5938H0.543456C0.999153 71.5938 1.0317 71.5449 1.11308 70.8614L1.19445 70.129L2.39879 70.0802C3.70079 70.0314 4.09138 69.8361 4.80748 68.8758C5.27945 68.2248 5.27945 67.5413 4.82375 66.8578C4.18903 65.9138 3.48921 65.6534 1.69897 65.6534C0.559731 65.6534 0.104034 65.7185 0.0389345 65.865ZM3.78216 67.0531C4.17276 67.4437 4.10766 68.2086 3.63569 68.6805C3.27764 69.0386 3.11489 69.0874 2.2035 69.0386L1.19445 68.9898L1.14563 68.1109C1.11308 67.639 1.12935 67.1344 1.17818 67.0205C1.30838 66.6787 3.44039 66.7113 3.78216 67.0531Z" fill="#393F2E"/>
<path d="M8.60089 65.8153C8.40559 65.9292 8.34049 66.4826 8.30794 68.6471C8.25912 71.2511 8.25912 71.3162 8.61716 71.5766C9.12168 71.9184 9.25188 71.7719 9.25188 70.8442C9.25188 69.4934 9.36581 69.3958 11.0096 69.3958C11.9047 69.3958 12.5069 69.4609 12.6371 69.5911C12.751 69.705 12.8324 70.177 12.8324 70.6327C12.8324 71.5115 13.0277 71.8207 13.3694 71.5441C13.6461 71.3162 13.6461 66.0757 13.3694 65.799C13.0277 65.4572 12.8324 65.8153 12.8324 66.7755C12.8324 68.1589 12.6371 68.3379 11.0909 68.3704C10.3911 68.3867 9.70758 68.3379 9.57738 68.2565C9.43091 68.1752 9.31698 67.6869 9.26816 66.9383C9.17051 65.7502 9.04031 65.5386 8.60089 65.8153Z" fill="#393F2E"/>
<path d="M17.0285 65.7508C16.9146 65.8485 17.3866 66.6622 18.2166 67.7364C18.949 68.7128 19.1768 69.3638 19.1768 70.5519C19.1768 71.3494 19.2257 71.5121 19.5023 71.5935C20.0394 71.7563 20.1533 71.5447 20.1533 70.3566C20.1533 69.2825 20.1859 69.1848 20.8043 68.4036C21.1624 67.9479 21.4553 67.5085 21.4553 67.4271C21.4553 67.3295 21.6832 66.9714 21.9761 66.6134C22.5457 65.8973 22.4481 65.5392 21.732 65.7183C21.3251 65.8159 20.9508 66.3042 20.0069 67.9154L19.779 68.306L19.3233 67.7526C19.0629 67.4434 18.8513 67.1179 18.8513 67.004C18.8513 66.6297 17.8423 65.6532 17.4842 65.6532C17.2727 65.6532 17.0774 65.702 17.0285 65.7508Z" fill="#393F2E"/>
<path d="M26.0618 66.1085C25.3782 66.7432 25.2643 67.1826 25.6061 67.9476C25.899 68.566 26.5012 68.9078 27.3475 68.9078C27.5103 68.9078 27.966 69.0705 28.3728 69.2658C29.0238 69.575 29.1052 69.689 29.1052 70.1609C29.1052 70.8608 28.682 71.0723 27.4452 70.991C26.7128 70.9421 26.4361 70.8445 26.2571 70.5841C25.9967 70.226 25.1992 70.2423 25.1992 70.6004C25.1992 71.1212 26.7453 72 27.6405 72C28.2589 72 29.2679 71.5606 29.805 71.0561C30.1305 70.7468 30.2444 70.4864 30.2444 70.0145C30.2444 69.575 30.1142 69.2658 29.805 68.9078C29.3981 68.4683 29.2028 68.387 28.1775 68.2893C26.9406 68.1428 26.3385 67.8174 26.3385 67.2477C26.3385 66.8246 27.3638 66.4014 28.0311 66.5479C29.3168 66.8083 29.5609 66.8246 29.6748 66.613C29.7562 66.4828 29.6423 66.2712 29.333 66.0271C28.9424 65.7179 28.6658 65.6528 27.7218 65.6528C26.6802 65.6528 26.5175 65.7016 26.0618 66.1085Z" fill="#393F2E"/>
<path d="M33.9233 65.7674C33.7606 65.9464 33.8094 71.4799 33.9884 71.5938C34.0698 71.6426 34.2977 71.6101 34.4767 71.5124C34.7696 71.3497 34.8022 71.1706 34.8022 69.3967C34.8022 67.2972 34.5906 65.8976 34.2326 65.7674C34.1186 65.7185 33.9722 65.7185 33.9233 65.7674Z" fill="#393F2E"/>
<path d="M39.3939 66.4015C38.9383 66.8084 38.5477 67.2153 38.5477 67.3129C38.5477 67.3943 38.4337 67.7198 38.2873 68.029C37.7176 69.2333 38.6128 71.1212 40.0124 71.642C40.9726 72.0164 41.4609 72.0489 42.0305 71.7722C42.3397 71.6258 42.6489 71.5118 42.7303 71.5118C42.9093 71.5118 43.7556 70.633 44.1299 70.0471C44.846 68.9892 44.2113 67.0688 42.8442 66.1411C42.2421 65.7342 41.9491 65.6529 41.1842 65.6529C40.3053 65.6529 40.1914 65.7017 39.3939 66.4015ZM42.7954 67.2804C43.2023 67.7523 43.2674 67.9476 43.2674 68.859C43.2674 69.8192 43.2348 69.9332 42.6978 70.454C42.2095 70.9585 42.0468 71.0236 41.3144 71.0236C40.2402 71.0236 39.9636 70.8608 39.4265 69.9494C38.9057 69.0543 38.9545 68.2243 39.6055 67.378C40.0938 66.7433 40.3867 66.6294 41.5422 66.7107C42.2095 66.7433 42.4211 66.8409 42.7954 67.2804Z" fill="#393F2E"/>
<path d="M47.269 65.8964C46.6993 66.4823 46.9923 66.6939 48.5547 66.8241L49.0429 66.8729L49.0592 69.1351C49.0592 71.0881 49.108 71.4298 49.3521 71.5763C49.8241 71.8693 49.938 71.3973 49.938 69.1188C49.938 67.7192 50.0031 66.938 50.1171 66.8566C50.2147 66.7915 50.6379 66.7427 51.061 66.7264C51.7771 66.7101 51.8097 66.6939 51.8097 66.2219V65.7336L49.6776 65.6848C47.8711 65.636 47.4968 65.6848 47.269 65.8964Z" fill="#393F2E"/>
<path d="M55.5851 65.7664C55.4224 65.9129 55.4549 71.3812 55.6014 71.6254C55.699 71.7881 55.813 71.7718 56.1059 71.5765C56.4314 71.3324 56.4639 71.2185 56.3826 70.5512C56.3337 70.1443 56.35 69.7212 56.4151 69.6073C56.4802 69.5096 57.0987 69.412 57.8799 69.3794C59.4585 69.3143 59.5399 69.3794 59.5399 70.6489C59.5399 71.5603 59.6864 71.7556 60.1909 71.5928C60.5001 71.4952 60.5164 71.3487 60.5164 68.6633C60.5164 65.978 60.5001 65.8315 60.1909 65.7339C59.6538 65.5711 59.5399 65.7827 59.5399 66.9545C59.5399 67.931 59.4911 68.11 59.1981 68.2727C58.8401 68.4518 56.7243 68.4192 56.529 68.2239C56.4639 68.1588 56.3988 67.6706 56.3663 67.1172C56.3012 65.978 55.9594 65.3758 55.5851 65.7664Z" fill="#393F2E"/>
<path d="M64.3401 65.8649C64.2913 65.9788 64.275 67.3133 64.2913 68.8269L64.3401 71.5936L65.756 71.6424C67.5137 71.6913 68.7343 71.5122 68.7343 71.1867C68.7343 70.9914 68.4576 70.9426 67.2696 70.9426C66.4721 70.9426 65.7072 70.8775 65.6095 70.8124C65.4956 70.731 65.398 70.3893 65.398 70.0312C65.398 69.6406 65.4793 69.3802 65.6095 69.3802C65.7072 69.364 66.2768 69.3314 66.8627 69.3151C68.5227 69.2663 68.6041 69.25 68.6855 68.9408C68.8482 68.3224 68.6855 68.2573 67.0092 68.2573H65.3817L65.4305 67.5574L65.4793 66.8739L67.1068 66.7925L68.7343 66.7111V66.2229V65.7347L66.5697 65.6858C64.9097 65.6533 64.3889 65.6858 64.3401 65.8649Z" fill="#393F2E"/>
<path d="M72.4608 65.8637C72.4283 65.9776 72.412 67.3121 72.4283 68.8257L72.4771 71.5924L72.9165 71.6413C73.4048 71.7064 73.4861 71.5111 73.5675 70.2905C73.6163 69.6883 73.6652 69.6395 74.1046 69.5906C74.6254 69.5418 74.9671 69.8185 75.7809 70.974C76.025 71.332 76.3342 71.5273 76.7248 71.6087C77.0341 71.6575 77.327 71.6738 77.3758 71.6413C77.4084 71.5924 77.1643 71.1856 76.7899 70.7299C76.0576 69.7859 76.0087 69.6232 76.4482 69.4767C76.8062 69.3628 77.4409 68.1747 77.4409 67.6051C77.4409 67.0843 76.7574 66.238 76.0901 65.9125C75.374 65.587 72.591 65.5382 72.4608 65.8637ZM76.3017 67.2145C76.7086 68.2886 76.0087 68.9559 74.5603 68.8745L73.6163 68.8257L73.5675 67.8004L73.5187 66.7913H74.8369C76.0901 66.7913 76.1552 66.8076 76.3017 67.2145Z" fill="#393F2E"/>
<path d="M83.0249 66.0762C82.7157 66.5644 82.0647 68.0617 81.8206 68.8429C81.7392 69.1359 81.5602 69.4451 81.43 69.559C81.2998 69.6729 81.1859 69.852 81.1859 69.9496C81.1859 70.0473 81.0394 70.4216 80.8441 70.7634C80.2419 71.8863 80.8278 72.1467 81.6904 71.1377C82.1136 70.6494 82.1461 70.6494 83.6271 70.6494C85.0756 70.6657 85.1407 70.682 85.6452 71.1702C86.1985 71.7073 86.345 71.7561 86.6868 71.5446C86.8333 71.4469 86.7519 71.1377 86.3125 70.3077C86.0033 69.7055 85.7429 69.1196 85.7429 69.0057C85.7429 68.8917 85.5964 68.5988 85.4174 68.371C85.2383 68.1431 85.0919 67.8339 85.0756 67.6549C85.0756 67.4921 84.864 66.9876 84.6199 66.5482C84.0665 65.5391 83.4969 65.3764 83.0249 66.0762ZM84.685 69.087C84.7664 69.4451 84.7175 69.5265 84.4083 69.6241C83.7736 69.7869 83.0575 69.738 82.732 69.4939C82.4228 69.2661 82.4228 69.2498 82.6994 68.9568C82.8459 68.7778 82.9761 68.4849 82.9761 68.3059C82.9761 68.1268 83.1389 67.7688 83.3179 67.5247L83.6759 67.0852L84.1316 67.8827C84.3758 68.3059 84.6199 68.8592 84.685 69.087Z" fill="#393F2E"/>
<path d="M90.2506 65.7661C90.1855 65.8149 90.1367 67.1332 90.1367 68.6793C90.1367 71.3484 90.153 71.4949 90.4622 71.5925C90.9179 71.739 91.1132 71.56 91.1132 71.0229C91.1132 70.1115 91.2109 70.0464 92.4966 70.0464C93.6684 70.0464 93.6846 70.0464 94.4333 69.3303C95.0843 68.6956 95.1819 68.5166 95.1819 67.9307C95.1819 67.182 94.8564 66.6612 94.0101 66.0265C93.5544 65.701 93.3103 65.6522 91.927 65.6522C91.0644 65.6522 90.2995 65.701 90.2506 65.7661ZM93.8474 66.9867C93.9613 67.1007 94.0427 67.4913 94.0427 67.8656C94.0427 68.7932 93.6521 69.0699 92.3176 69.0699C91.1946 69.0699 91.1132 68.9885 91.1132 67.9307C91.1132 66.8403 91.1783 66.7914 92.4803 66.7914C93.1801 66.7914 93.7335 66.8728 93.8474 66.9867Z" fill="#393F2E"/>
<path d="M98.0483 65.7995C97.9018 66.0273 98.1134 66.4668 98.7481 67.3131C99.9199 68.8429 100.066 69.1847 100.066 70.2588C100.066 71.4957 100.197 71.7236 100.766 71.5771C101.189 71.4794 101.206 71.4306 101.206 70.3076C101.206 69.3149 101.271 69.0545 101.613 68.5825C101.84 68.2733 102.019 67.9315 102.019 67.8339C102.019 67.7199 102.117 67.5572 102.231 67.4921C102.589 67.2642 103.354 66.0111 103.24 65.832C103.012 65.4577 102.361 65.6367 102.084 66.1738C101.938 66.4505 101.759 66.7597 101.678 66.8574C101.596 66.955 101.352 67.2805 101.108 67.5572C100.88 67.8501 100.587 68.0943 100.457 68.0943C100.343 68.0943 100.131 67.8501 100.018 67.5572C99.8874 67.2805 99.6758 66.9387 99.5293 66.8085C99.3666 66.6946 99.2526 66.4668 99.2526 66.3203C99.2526 66.1738 99.1713 65.9622 99.0573 65.8483C98.8295 65.6205 98.1785 65.5879 98.0483 65.7995Z" fill="#393F2E"/>
<path d="M112.387 65.7666C112.321 65.8154 112.273 66.0107 112.273 66.1898C112.273 66.3525 112.126 66.678 111.947 66.9059C111.768 67.1337 111.622 67.4267 111.622 67.5406C111.622 67.6545 111.443 68.0939 111.215 68.5171C110.987 68.9402 110.808 69.3796 110.808 69.4773C110.808 69.5912 110.629 70.0144 110.401 70.3887C109.929 71.235 109.897 71.4466 110.271 71.593C110.466 71.6581 110.661 71.5605 110.906 71.2675C111.329 70.7305 112.452 70.4863 113.786 70.6328C114.567 70.7305 114.779 70.8118 114.909 71.1048C115.088 71.5117 115.869 71.7558 116.048 71.4628C116.114 71.3489 116.016 71.1211 115.853 70.942C115.674 70.7467 115.528 70.4375 115.528 70.2259C115.528 70.0306 115.349 69.5261 115.121 69.103C114.893 68.6798 114.714 68.2567 114.714 68.159C114.714 68.0614 114.616 67.8824 114.486 67.7847C114.356 67.6708 114.209 67.3453 114.161 67.0361C113.981 66.1247 112.842 65.3109 112.387 65.7666ZM113.363 67.3127C113.461 67.4267 113.575 67.7684 113.64 68.0777C113.689 68.3869 113.851 68.7612 113.981 68.9077C114.405 69.3634 114.112 69.7214 113.347 69.7214C112.159 69.7214 111.947 69.5912 112.061 69.0053C112.175 68.4357 112.891 67.1174 113.086 67.1174C113.151 67.1174 113.282 67.2151 113.363 67.3127Z" fill="#393F2E"/>
<path d="M119.855 65.8155C119.708 66.2712 119.643 71.1537 119.79 71.4141C120.099 71.9512 120.245 71.4466 120.245 69.9168C120.262 68.8915 120.327 68.2405 120.473 68.0615C120.652 67.8173 120.782 67.8987 121.645 68.9403C122.166 69.5588 122.833 70.3888 123.11 70.7631C123.533 71.3164 123.696 71.4304 124.168 71.4304H124.721V68.6962C124.721 66.4503 124.672 65.9457 124.477 65.8155C124.347 65.7342 124.168 65.6853 124.07 65.7016C123.989 65.7342 123.858 66.6293 123.793 67.6709C123.728 68.7287 123.63 69.6401 123.582 69.7052C123.468 69.8192 122.882 69.1519 122.263 68.2242C121.58 67.1663 119.952 65.5389 119.855 65.8155Z" fill="#393F2E"/>
<path d="M128.609 65.865C128.577 65.9789 128.56 67.3135 128.577 68.827L128.626 71.5938L130.497 71.5449C132.548 71.4798 132.906 71.3496 133.427 70.4871C133.671 70.0802 133.752 69.6733 133.752 68.648C133.752 67.4437 133.72 67.2972 133.296 66.8252C132.564 66.0115 131.604 65.6534 130.041 65.6534C129.097 65.6534 128.674 65.7185 128.609 65.865ZM132.06 66.9229C132.515 67.2158 132.808 68.1597 132.743 69.0386C132.678 69.8198 132.597 69.9988 132.108 70.3894C131.555 70.8451 130.448 71.1218 129.96 70.9265C129.716 70.8451 129.683 70.5522 129.683 68.8107V66.7927H130.79C131.392 66.7927 131.962 66.8578 132.06 66.9229Z" fill="#393F2E"/>
<path d="M141.092 65.7988C140.962 65.8802 140.946 65.9778 141.043 66.0429C141.125 66.0918 141.255 66.4498 141.304 66.8404C141.369 67.231 141.564 67.8169 141.727 68.1424C141.906 68.4679 142.052 68.8585 142.052 69.0212C142.052 69.1677 142.166 69.4118 142.296 69.5583C142.427 69.7048 142.606 70.1768 142.687 70.5999C142.85 71.495 142.817 71.4462 143.371 71.5927C143.745 71.6903 143.859 71.609 144.168 71.1207C144.363 70.7952 144.575 70.2256 144.624 69.835C144.754 69.0212 145.356 68.1749 145.698 68.3051C145.844 68.3702 145.975 68.7283 146.04 69.184C146.088 69.6071 146.3 70.307 146.495 70.7301C146.805 71.3974 146.918 71.495 147.358 71.5113C147.814 71.5113 147.879 71.4462 147.976 70.958C148.041 70.6487 148.188 70.3232 148.318 70.2093C148.448 70.0954 148.562 69.8513 148.562 69.6722C148.562 69.4932 148.709 69.0538 148.871 68.6795C149.197 68.0122 149.653 66.7102 149.815 66.0104C149.897 65.6686 149.864 65.6361 149.36 65.6849C148.92 65.7174 148.79 65.8151 148.725 66.1406C148.66 66.3684 148.497 66.8241 148.351 67.1496C148.204 67.4914 148.074 67.9308 148.074 68.1587C148.074 68.3702 147.895 68.8585 147.683 69.2328L147.309 69.9001L146.951 69.4607C146.772 69.2165 146.609 68.7934 146.609 68.5004C146.609 68.2075 146.463 67.7844 146.284 67.5565C146.105 67.3287 145.958 66.9381 145.958 66.6777C145.958 66.0592 145.616 65.6035 145.258 65.7337C144.998 65.8476 144.656 66.7265 144.656 67.3612C144.656 67.5402 144.51 67.8983 144.331 68.1749C144.152 68.4353 144.005 68.8422 144.005 69.0701C144.005 69.2979 143.891 69.6071 143.761 69.7862C143.55 70.0628 143.501 70.0303 143.094 69.1352C142.85 68.5981 142.606 67.8332 142.524 67.3938C142.394 66.5963 141.841 65.6523 141.515 65.6523C141.401 65.6523 141.222 65.7174 141.092 65.7988Z" fill="#393F2E"/>
<path d="M153.333 65.7502C153.17 65.8153 153.121 66.5639 153.121 68.6634C153.121 70.7791 153.17 71.4952 153.333 71.5603C153.561 71.6417 156.995 71.5278 157.336 71.4139C157.499 71.365 157.515 71.2999 157.353 71.1046C157.206 70.9256 156.897 70.8931 155.872 70.9744C154.439 71.0884 154.098 70.9419 154.098 70.2258C154.098 69.4121 154.293 69.3144 155.839 69.2981C156.913 69.2656 157.304 69.2005 157.418 69.0215C157.743 68.5007 157.255 68.2728 155.676 68.224L154.179 68.1752V67.5242V66.8732L155.481 66.8243C157.353 66.7755 157.548 66.7104 157.483 66.1734L157.434 65.7339L155.481 65.7014C154.407 65.6851 153.43 65.7177 153.333 65.7502Z" fill="#393F2E"/>
<path d="M161.504 66.0273C161.292 66.3528 161.26 66.8573 161.292 68.9242L161.341 71.4306L163.424 71.4794C165.182 71.5119 165.491 71.4794 165.491 71.2678C165.491 71.0725 165.231 71.0237 164.075 71.0237C163.278 71.0237 162.545 70.9586 162.448 70.8935C162.301 70.7958 162.236 70.0147 162.203 68.257C162.155 65.653 162.024 65.2461 161.504 66.0273Z" fill="#393F2E"/>
<path d="M168.777 65.8484C168.647 65.9786 168.582 66.8411 168.582 68.7779V71.5283L170.698 71.4795C173.155 71.4307 173.676 71.1377 171.43 71.0563C170.633 71.0238 169.9 70.9424 169.803 70.8448C169.721 70.7634 169.607 69.5753 169.559 68.2082C169.493 66.1739 169.428 65.7345 169.233 65.6856C169.087 65.6694 168.891 65.7345 168.777 65.8484Z" fill="#393F2E"/>
<path d="M176.603 65.7668C176.343 65.9458 176.261 71.2839 176.506 71.5281C176.88 71.9024 177.043 71.4792 177.043 70.047C177.043 67.7848 177.173 67.6546 178.312 68.9404C178.735 69.4123 179.24 69.9657 179.435 70.161C179.63 70.3563 179.826 70.6818 179.891 70.8608C180.037 71.3002 180.672 71.7071 181.014 71.5769C181.242 71.4955 181.274 71.1212 181.274 68.6637C181.274 66.4015 181.225 65.8319 181.046 65.7668C180.672 65.6203 180.623 65.7993 180.623 67.378C180.623 68.208 180.542 69.0868 180.444 69.3472L180.265 69.8029L179.533 68.9892C179.126 68.5335 178.621 67.915 178.426 67.6058C177.808 66.6456 176.815 65.6366 176.603 65.7668Z" fill="#393F2E"/>
<path d="M185.474 65.7502C185.393 65.8153 185.344 67.1336 185.344 68.6797C185.344 70.2258 185.393 71.5116 185.474 71.5604C185.539 71.5929 186.516 71.5767 187.671 71.5441C189.217 71.4953 189.738 71.4302 189.738 71.2674C189.738 70.9745 189.12 70.8443 188.062 70.9419C187.557 70.9908 186.971 70.9582 186.743 70.8606C186.385 70.7304 186.32 70.6002 186.32 70.0631C186.32 69.3307 186.597 69.1842 187.72 69.347C188.729 69.4772 189.543 69.2819 189.673 68.875C189.819 68.3705 189.494 68.2566 187.834 68.2566H186.32V67.5242V66.8081L187.997 66.7593L189.657 66.7105L189.705 66.2548C189.738 65.9781 189.689 65.8153 189.543 65.8153C189.429 65.8153 188.485 65.7665 187.459 65.7177C186.434 65.6526 185.539 65.6689 185.474 65.7502Z" fill="#393F2E"/>
<path d="M193.789 66.1248C193.415 66.5154 193.317 66.7432 193.317 67.3291C193.317 68.3219 193.659 68.6636 194.847 68.8915C196.572 69.217 197.321 69.9656 196.637 70.7143C196.198 71.2025 194.619 71.1537 194.033 70.6166C193.805 70.4051 193.561 70.2423 193.496 70.2749C193.447 70.2911 193.252 70.3725 193.089 70.4376C192.796 70.5353 192.796 70.5678 193.171 70.9584C193.643 71.4467 194.815 72 195.433 72C196.084 72 197.207 71.4629 197.663 70.9259C197.988 70.5353 198.053 70.34 197.988 69.8192C197.858 68.8264 196.995 68.2568 195.661 68.2568C195.059 68.2568 194.831 68.1591 194.424 67.7685C193.952 67.2966 193.936 67.2477 194.212 66.9548C194.603 66.5154 195.319 66.4014 196.23 66.6456C196.67 66.7595 197.158 66.792 197.321 66.7269C197.598 66.613 197.565 66.5479 197.06 66.1248C196.556 65.7016 196.377 65.6528 195.384 65.6528C194.375 65.6528 194.229 65.7016 193.789 66.1248Z" fill="#393F2E"/>
<path d="M201.719 66.3363C201.051 67.1175 201.035 67.2152 201.409 68.0127C201.67 68.566 202.321 68.9078 203.118 68.9078C203.965 68.9078 205.039 69.6401 205.039 70.1935C205.039 71.0561 202.907 71.3653 202.126 70.6329C201.784 70.3237 201.621 70.2749 201.328 70.3888L200.938 70.5353L201.296 70.9747C201.686 71.4792 202.76 72 203.395 72C204.079 72 205.315 71.4629 205.673 70.991C206.113 70.4376 206.097 69.5913 205.641 69.0542C205.12 68.4358 204.681 68.2568 203.737 68.2568C203.07 68.2568 202.825 68.1754 202.5 67.8499C201.963 67.3128 202.06 66.9385 202.809 66.6456C203.33 66.4503 203.558 66.4503 204.323 66.6293C205.022 66.8083 205.25 66.8083 205.413 66.6456C205.56 66.4828 205.511 66.3526 205.12 66.0434C204.713 65.7179 204.453 65.6528 203.46 65.6528H202.305L201.719 66.3363Z" fill="#393F2E"/>
</svg>
