<svg width="1921" height="1055" viewBox="0 0 1921 1055" fill="none" xmlns="http://www.w3.org/2000/svg">
<g clip-path="url(#clip0_507_2)">
<path opacity="0.11" d="M1920.19 675.217C1920.19 675.217 1834.34 337.447 1533.52 404.985C1232.69 472.523 1094.12 404.985 995.248 259.825C896.38 114.665 643.248 132.872 420.619 180.62C197.99 228.368 118.189 159.087 0 0C0 0.029 0.052002 1054.85 0.052002 1054.85H1920.18L1920.19 675.217Z" fill="url(#paint0_linear_507_2)"/>
<path d="M1920.16 675.297C1920.16 675.297 1833.87 383.837 1534.24 448.905C1234.6 513.973 1096.57 448.905 998.095 309.053C899.62 169.201 649.58 164.412 421.553 220.734C193.526 277.056 41.5526 104.253 0.115601 0.144531C0.215601 8.14453 0.0996094 1054.85 0.0996094 1054.85H1920.15L1920.16 675.297Z" fill="url(#paint1_linear_507_2)"/>
</g>
<defs>
<linearGradient id="paint0_linear_507_2" x1="960.096" y1="1054.85" x2="960.096" y2="0" gradientUnits="userSpaceOnUse">
<stop stop-color="#393F2E" stop-opacity="0.5"/>
<stop offset="0.5" stop-color="#798F58"/>
<stop offset="1" stop-color="#99A983"/>
</linearGradient>
<linearGradient id="paint1_linear_507_2" x1="960.131" y1="1054.85" x2="960.131" y2="0.144531" gradientUnits="userSpaceOnUse">
<stop stop-color="#393F2E" stop-opacity="0.5"/>
<stop offset="0.5" stop-color="#798F58"/>
<stop offset="1" stop-color="#99A983"/>
</linearGradient>
<clipPath id="clip0_507_2">
<rect width="1920.19" height="1054.85" fill="white"/>
</clipPath>
</defs>
</svg>
