<svg width="200" height="200" viewBox="0 0 200 200" fill="none" xmlns="http://www.w3.org/2000/svg">
<path d="M93.2493 0.449865C92.6993 0.649865 90.5993 0.999865 88.5493 1.19987C59.3493 4.04987 30.5493 22.3999 15.0993 48.0999C7.39929 60.8999 3.39929 72.1499 1.19929 87.3499C0.249292 93.7499 -0.250708 106.85 0.399292 107.65C0.649292 108 1.04929 109.6 1.19929 111.25C2.59929 123.3 5.44929 132.9 10.7493 143.75C16.2993 155.05 22.0493 163 31.0493 171.8C39.3493 179.8 48.7493 186.2 59.2493 190.9C66.9493 194.35 77.4993 197.4 85.4993 198.5C87.8493 198.8 90.5493 199.3 91.4993 199.55C93.9493 200.25 107.749 199.8 113.299 198.85C136.449 194.85 153.649 186.45 168.849 171.85C177.649 163.35 183.699 155.05 189.249 143.75C193.799 134.55 197.349 123 198.549 113.5C198.849 111.15 199.299 108.75 199.549 108.1C200.149 106.6 200.149 93.7499 199.549 91.7999C199.299 90.9499 198.699 87.7499 198.249 84.7499C196.099 70.2499 190.499 56.1499 182.149 43.9999C172.049 29.3999 159.949 18.7499 144.849 11.1999C135.049 6.24987 124.249 2.94987 111.999 1.14987C105.599 0.199865 94.7993 -0.200135 93.2493 0.449865ZM109.899 7.99986C138.349 10.9999 163.749 27.1499 179.149 52.0499C185.049 61.6499 188.749 71.5499 191.299 84.4999C192.499 90.6499 192.499 109.05 191.299 115.25C188.049 132.05 182.749 143.95 172.399 157.6C167.649 163.8 165.049 166.45 157.599 172.35C137.999 188 113.049 194.95 88.1493 191.75C52.0493 187.05 22.1993 161.9 11.5993 127.25C8.34929 116.6 7.79929 112.85 7.79929 100.25C7.74929 88.0499 8.09929 85.0999 10.7493 75.2499C17.5993 49.8999 36.4493 27.6499 60.7493 16.1999C69.3493 12.1499 81.9493 8.59986 90.2493 7.84986C94.6493 7.44986 105.499 7.54986 109.899 7.99986Z" fill="#B8222D"/>
<path d="M67.85 37.3494C67.65 37.4994 67.5 52.4494 67.5 70.5494V103.399L71.75 108.049C74.05 110.599 76.3 112.899 76.7 113.099C77.4 113.499 103.35 113.799 118.7 113.599L126.1 113.499L127.95 111.599C128.95 110.599 131.05 108.349 132.6 106.649L135.5 103.599L135.8 91.1494C136 84.3494 135.95 69.3494 135.75 57.8494L135.4 36.9994H101.75C83.3 36.9994 68 37.1494 67.85 37.3494Z" fill="#B8222D"/>
<path d="M67.4984 118.85C67.2984 131.3 67.3484 162.5 67.5484 162.7C67.6984 162.9 83.4484 163 102.498 163C130.148 163.05 137.248 162.9 137.598 162.4C138.048 161.75 137.598 119.65 137.148 118.85C137.048 118.65 121.298 118.5 102.198 118.5C83.0984 118.5 67.4984 118.65 67.4984 118.85ZM94.6984 124.5C96.3484 124.75 97.8984 125.2 98.1484 125.45C98.4484 125.75 98.3484 127.25 97.9484 129.45C97.4484 132.4 97.1984 133 96.5484 132.7C96.0984 132.5 94.4984 132.25 92.9484 132.15C87.8484 131.7 84.0484 134.35 83.1984 138.9C81.8984 145.8 87.3484 150.95 94.4484 149.55C95.9484 149.25 97.2484 149.1 97.3984 149.25C97.7484 149.55 98.4484 153.5 98.4984 155.1C98.4984 156.25 98.1984 156.55 96.6484 156.95C93.6484 157.8 85.9984 157.6 82.9484 156.65C79.1984 155.45 74.9984 151.3 73.7484 147.5C71.5484 140.95 73.2484 133.2 77.7484 129.05C80.4484 126.55 82.3484 125.6 86.1984 124.75C89.9984 123.9 90.9984 123.9 94.6984 124.5ZM124.048 125.35C126.998 126.7 129.298 129.15 130.198 131.95C130.698 133.5 130.998 137.95 131.248 145.6L131.548 157H127.098H122.648L122.298 155.4L121.998 153.85L120.848 154.9C119.048 156.6 115.998 157.65 112.748 157.65C106.498 157.7 102.498 153.8 102.498 147.75C102.498 140.95 107.898 136.65 117.648 135.7C120.048 135.45 120.998 135.15 120.998 134.65C120.998 131.1 115.248 130.1 108.848 132.5C107.098 133.15 106.398 133.25 106.248 132.85C106.148 132.5 105.698 131.05 105.298 129.6L104.548 126.95L106.398 126.15C111.848 123.9 119.898 123.5 124.048 125.35Z" fill="#B8222D"/>
<path d="M115.75 142.75C113.3 143.65 112.5 144.65 112.5 147C112.5 149.25 113.7 150.5 115.9 150.5C119.55 150.5 121.5 148.3 121.5 144.25V142H119.65C118.6 142.05 116.85 142.35 115.75 142.75Z" fill="#B8222D"/>
</svg>
