<svg width="1921" height="1076" viewBox="0 0 1921 1076" fill="none" xmlns="http://www.w3.org/2000/svg">
<g clip-path="url(#clip0_352_36)">
<mask id="mask0_352_36" style="mask-type:luminance" maskUnits="userSpaceOnUse" x="0" y="0" width="1921" height="1076">
<path d="M1920.18 0H0V1075.64H1920.18V0Z" fill="white"/>
</mask>
<g mask="url(#mask0_352_36)">
<path d="M1920.18 0H0V1075.64H1920.18V0Z" fill="#82A04C" fill-opacity="0.64"/>
<path d="M0.0585938 607.556C0.0585938 607.556 95.3276 811.749 401.269 768.703C707.21 725.657 820.925 736.603 945.457 865.595C1069.99 994.587 1289.43 973.135 1518.37 932.661C1747.3 892.187 1878.56 1000.82 1920.16 1075.63C1920.2 1073.23 1920.08 0.0078125 1920.08 0.0078125L0.0816039 0.0188294L0.0585938 607.556Z" fill="url(#paint0_linear_352_36)"/>
</g>
<path opacity="0.14" d="M42.5 661C42.5 661 324.067 256.018 931.5 456.5C1555.99 662.612 1709.85 541.448 1896.6 0" stroke="#616E4E" stroke-width="128"/>
<path opacity="0.11" d="M0 607.406C0 607.406 100.43 847.35 401.206 798.883C701.982 750.416 843.274 808.46 938.836 913.824C1034.4 1019.19 1290.93 1008.15 1519.82 966.198C1748.72 924.243 1882.99 1007.99 1920.18 1075.64C1920.2 1075.65 1919.81 0.0269775 1919.81 0.0269775L0.0440063 0L0 607.406Z" fill="url(#paint1_linear_352_36)"/>
</g>
<defs>
<linearGradient id="paint0_linear_352_36" x1="960.112" y1="0.0078125" x2="960.112" y2="1075.63" gradientUnits="userSpaceOnUse">
<stop stop-color="#B1C791"/>
<stop offset="1" stop-color="#99A983"/>
</linearGradient>
<linearGradient id="paint1_linear_352_36" x1="960.092" y1="0" x2="960.092" y2="1075.64" gradientUnits="userSpaceOnUse">
<stop stop-color="#CDE0AF"/>
</linearGradient>
<clipPath id="clip0_352_36">
<rect width="1921" height="1076" fill="white"/>
</clipPath>
</defs>
</svg>
